{"title":"Beyond The Lights - Trova La Tua Voce (2014).BRrip.XviD - Italia","uid":12078428,"size":2000383902,"categoryP":"video","categoryS":"movies","magnet":"?xt=urn:btih:65136a3072e81993019b8687aec9f0a257000ec2&amp;dn=Beyond+The+Lights+-+Trova+La+Tua+Voce+%282014%29.BRrip.XviD+-+Italia&amp;tr=udp%3A%2F%2Ftracker.openbittorrent.com%3A80&amp;tr=udp%3A%2F%2Fopen.demonii.com%3A1337&amp;tr=udp%3A%2F%2Ftracker.coppersurfer.tk%3A6969&amp;tr=udp%3A%2F%2Fexodus.desync.com%3A6969","seeders":3,"leechers":0,"uploader":"robbyrs4","files":2,"time":1435689106,"description":"Beyond The Lights - Trova La Tua Voce (2014).BRrip.XviD - Italian English.Ac3.5.1.Sub.ita.MIRCrew\n\n[center]\n\n[color=red][b][img]http://s19.postimg.org/w9ws99nmb/banner_mircrew_original_2.png[/img]\n\n[u]NO FOUND ONLY ORIGINAL RELEASE[/u]\n\nBeyond The Lights - Trova La Tua Voce (2014)\n\n[img]http://i.imgur.com/OL9Y0ph.png[/img]\n\n\n[URL=http://www.imdb.com/title/tt3125324/][IMG]http://www.userlogos.org/files/logos/Sucka/imdb_new.png[/IMG][/URL]  \n\n[img]http://s19.postimg.org/vz5tzn42b/1_scheda.png[/img]\n\nTitolo originale \tBeyond the Lights\nLingua originale \tinglese\nPaese di produzione \tStati Uniti\nAnno \t2014\nDurata \t116 min\nColore \tcolore\nAudio \tsonoro\nGenere \tdrammatico, sentimentale\nRegia \tGina Prince-Bythewood\nSoggetto \tGina Prince-Bythewood\nProduttore \tStephanie Allain, Reggie Rock Bythewood, Ryan Kavanaugh\nCasa di produzione \tUndisputed Cinema, Homegrown Pictures\nFotografia \tTami Reiker\nMontaggio \tTerilyn A. Shropshire\nMusiche \tMark Isham\n\n[img]http://s19.postimg.org/q8fnlww2b/1_cast.png[/img]\n\n\n\n    Gugu Mbatha-Raw: Noni\n    Minnie Driver: Macy Jean\n    Nate Parker: Kaz\n    Danny Glover: Cpt. Nicol\n    Machine Gun Kelly: Kid Culprit\n    Darryl Stephens: Quentin\n    Elaine Tan: April\n    Tyler Christopher: Liam\n    Benito Martinez: Jesse Soria\n    Aisha Hinds: J Stanley\n\n\n   \n[img]http://s19.postimg.org/okgi79i6r/1_trama.png[/img]. \n\nLe pressioni del successo stanno portando la cantante Noni sull'orlo del baratro, fino a quando non conosce Kaz, un giovane poliziotto che la aiuta e la incoraggia.........\n\n[img]http://s19.postimg.org/fzn6g380j/1_story.png[/img]\n\nThe pressures of fame have superstar singer Noni on the edge, until she meets Kaz, a young cop who works to help her find the courage to develop her own voice and break free to become the artist she was meant to be.................\n &lt;a href=&quot;\nhttp://extraimago.com/images/2015/06/29/vlcsnap-2015-06-29-18h33m19s254.png[/img]&quot; rel=&quot;nofollow&quot; target=&quot;_NEW&quot;&gt;\nhttp://extraimago.com/images/2015/06/29/vlcsnap-2015-06-29-18h33m19s254.png[/img]&lt;/a&gt; &lt;a href=&quot;\nhttp://extraimago.com/images/2015/06/29/vlcsnap-2015-06-29-18h33m44s4.png[/img]&quot; rel=&quot;nofollow&quot; target=&quot;_NEW&quot;&gt;\nhttp://extraimago.com/images/2015/06/29/vlcsnap-2015-06-29-18h33m44s4.png[/img]&lt;/a&gt; &lt;a href=&quot;\nhttp://extraimago.com/images/2015/06/29/vlcsnap-2015-06-29-18h34m26s167.png[/img]&quot; rel=&quot;nofollow&quot; target=&quot;_NEW&quot;&gt;\nhttp://extraimago.com/images/2015/06/29/vlcsnap-2015-06-29-18h34m26s167.png[/img]&lt;/a&gt;\n\n[IMG]http://img153.imageshack.us/img153/3158/restateinseedblood.gif[/img]\n\n\n[img]http://imgur.com/lvhU6.gif[/img]\n\n\n[img]http://s19.postimg.org/a2jaz9qvn/1_dati.png[/img]\n\n\n[spoiler]\nGeneral\nComplete name                            : Beyond The Lights - Trova La Tua Voce (2014).ita.eng.sub.ita.MIRCrewBeyond The Lights - Trova La Tua Voce (2014).ita.eng.sub.ita.MIRCrew.avi\nFormat                                   : AVI\nFormat/Info                              : Audio Video Interleave\nFile size                                : 1.86 GiB\nDuration                                 : 1h 56mn\nOverall bit rate                         : 2 289 Kbps\nMovie name                               : MIRCrew by robbyrs\nWriting application                      : VirtualDubMod 1.5.10.2 (build 2540/release)\nWriting library                          : VirtualDubMod build 2540/release\n\nVideo\nID                                       : 0\nFormat                                   : MPEG-4 Visual\nFormat profile                           : Simple@L3\nFormat settings, BVOP                    : No\nFormat settings, QPel                    : No\nFormat settings, GMC                     : No warppoints\nFormat settings, Matrix                  : Default (H.263)\nCodec ID                                 : XVID\nCodec ID/Hint                            : XviD\nDuration                                 : 1h 56mn\nBit rate                                 : 1 379 Kbps\nWidth                                    : 720 pixels\nHeight                                   : 404 pixels\nDisplay aspect ratio                     : 16:9\nFrame rate                               : 23.976 fps\nColor space                              : YUV\nChroma subsampling                       : 4:2:0\nBit depth                                : 8 bits\nScan type                                : Progressive\nCompression mode                         : Lossy\nBits/(Pixel*Frame)                       : 0.198\nStream size                              : 1.12 GiB (60%)\nWriting library                          : XviD 64\n\nAudio #1\nID                                       : 1\nFormat                                   : AC-3\nFormat/Info                              : Audio Coding 3\nMode extension                           : CM (complete main)\nCodec ID                                 : 2000\nDuration                                 : 1h 56mn\nBit rate mode                            : Constant\nBit rate                                 : 448 Kbps\nChannel(s)                               : 6 channels\nChannel positions                        : Front: L C R, Side: L R, LFE\nSampling rate                            : 48.0 KHz\nBit depth                                : 16 bits\nCompression mode                         : Lossy\nStream size                              : 373 MiB (20%)\nAlignment                                : Split accross interleaves\nInterleave, duration                     : 42 ms (1.00 video frame)\nInterleave, preload duration             : 500 ms\n\nAudio #2\nID                                       : 2\nFormat                                   : AC-3\nFormat/Info                              : Audio Coding 3\nMode extension                           : CM (complete main)\nCodec ID                                 : 2000\nDuration                                 : 1h 56mn\nBit rate mode                            : Constant\nBit rate                                 : 448 Kbps\nChannel(s)                               : 6 channels\nChannel positions                        : Front: L C R, Side: L R, LFE\nSampling rate                            : 48.0 KHz\nBit depth                                : 16 bits\nCompression mode                         : Lossy\nStream size                              : 373 MiB (20%)\nAlignment                                : Split accross interleaves\nInterleave, duration                     : 42 ms (1.00 video frame)\nInterleave, preload duration             : 500 ms\n\n\n\n\n[/spoiler]\n\n[/color][/b][/center]","torrent":{"xt":"urn:btih:65136a3072e81993019b8687aec9f0a257000ec2","amp;dn":"Beyond+The+Lights+-+Trova+La+Tua+Voce+%282014%29.BRrip.XviD+-+Italia","amp;tr":["udp%3A%2F%2Ftracker.openbittorrent.com%3A80","udp%3A%2F%2Fopen.demonii.com%3A1337","udp%3A%2F%2Ftracker.coppersurfer.tk%3A6969","udp%3A%2F%2Fexodus.desync.com%3A6969"],"infoHash":"65136a3072e81993019b8687aec9f0a257000ec2","infoHashBuffer":{"type":"Buffer","data":[101,19,106,48,114,232,25,147,1,155,134,135,174,201,240,162,87,0,14,194]},"announce":[],"urlList":[]}}